<svg width="24" height="24" viewBox="0 0 24 24" fill="none" xmlns="http://www.w3.org/2000/svg">
<path d="M4 9C5.65685 9 7 7.65685 7 6C7 4.34315 5.65685 3 4 3C2.34315 3 1 4.34315 1 6C1 7.65685 2.34315 9 4 9Z" fill="#00A4B1"/>
<path d="M12 9C13.6569 9 15 7.65685 15 6C15 4.34315 13.6569 3 12 3C10.3431 3 9 4.34315 9 6C9 7.65685 10.3431 9 12 9Z" fill="#00A4B1"/>
<path d="M20 9C21.6569 9 23 7.65685 23 6C23 4.34315 21.6569 3 20 3C18.3431 3 17 4.34315 17 6C17 7.65685 18.3431 9 20 9Z" fill="#00A4B1"/>
</svg>
